/* XPM */
static char *_bf936b563084fffa901c46965e4b1b1L0eRr25bYwdioDRK[] = {
/* columns rows colors chars-per-pixel */
"32 32 2 1 ",
"  c #F40000",
". c white",
/* pixels */
"       .        .        .      ",
"       .        .        .      ",
"       .        .        .      ",
"       .        .        .      ",
"................................",
"   .       .        .        .  ",
"   .       .        .        .  ",
"   .       .        .        .  ",
"   .       .        .        .  ",
"   .       .        .        .  ",
"................................",
"       .        .        .      ",
"       .        .        .      ",
"       .        .        .      ",
"       .        .        .      ",
"       .        .        .      ",
"................................",
"   .       .        .        .  ",
"   .       .        .        .  ",
"   .       .        .        .  ",
"   .       .        .        .  ",
"   .       .        .        .  ",
"................................",
"       .        .        .      ",
"       .        .        .      ",
"       .        .        .      ",
"       .        .        .      ",
"       .        .        .      ",
"................................",
"   .       .        .        .  ",
"   .       .        .        .  ",
"   .       .        .        .  "
};
