/* XPM */
static char *_0351c295ba044dff9c3248c73394949XGLb7cWPUR9pYSxT[] = {
/* columns rows colors chars-per-pixel */
"32 32 4 1 ",
"  c black",
". c red",
"X c #009C05",
"o c #F0FF00",
/* pixels */
"                                ",
"                                ",
"                                ",
"                                ",
"                                ",
"              .....             ",
"          .........             ",
"          .........             ",
"          ...........           ",
"          ....ooo.....          ",
"           ...ooo.....          ",
"          .....o......          ",
"          ...........           ",
"          ...........           ",
"          .....XX...            ",
"               XX               ",
"              XXX               ",
"              XXX               ",
"              XXX               ",
"              XXXXX             ",
"              XXX X             ",
"             XXXX               ",
"           XX XXX               ",
"           X   XX               ",
"               XX               ",
"               XXX              ",
"               XXXX             ",
"               XXXXX            ",
"               XX   X           ",
"               XX               ",
"               XX               ",
"               XX               "
};
