/* XPM */
static char *_8faad26dfc54fcee768312c7db6b291aOLeMA5XbhVAv6rm[] = {
/* columns rows colors chars-per-pixel */
"32 32 4 1 ",
"  c black",
". c red",
"X c #FFBF00",
"o c white",
/* pixels */
"XXXXXXXXXXXXXXXXXXXXXXXXXXXXXXXX",
"XXXXXXXXXXXXXXXXXXXXXXXXXXXXXXXX",
"XXXXXXXXXXXXXXXXXXXXXXXXXXXXXXXX",
"XXXXXXXXXXXXXXXXXXXXXXXXXXXXXXXX",
"XXXXXXXXXXXXXXXXXXXXXXXXXXXXXXXX",
"XXXXXXXXXXXX        XXXXXXXXXXXX",
"XXXXXXXXXX  ........  XXXXXXXXXX",
"XXXXXXXXX ............ XXXXXXXXX",
"XXXXXXX  ..............  XXXXXXX",
"XXXXXXX ................ XXXXXXX",
"XXXXXX .................. XXXXXX",
"XXXXX .................... XXXXX",
"XXXXX .................... XXXXX",
"XXXX ...................... XXXX",
"XXXX ........      ........ XXXX",
"XXXX ........ oooo ........ XXXX",
"XXXX          oooo          XXXX",
"XXXX oooooooo oooo oooooooo XXXX",
"XXXX oooooooo      oooooooo XXXX",
"XXXX oooooooooooooooooooooo XXXX",
"XXXXX oooooooooooooooooooo XXXXX",
"XXXXX oooooooooooooooooooo XXXXX",
"XXXXXX oooooooooooooooooo XXXXXX",
"XXXXXXX oooooooooooooooo XXXXXXX",
"XXXXXXX  oooooooooooooo  XXXXXXX",
"XXXXXXXXX oooooooooooo XXXXXXXXX",
"XXXXXXXXXX  oooooooo  XXXXXXXXXX",
"XXXXXXXXXXXX        XXXXXXXXXXXX",
"XXXXXXXXXXXXXXXXXXXXXXXXXXXXXXXX",
"XXXXXXXXXXXXXXXXXXXXXXXXXXXXXXXX",
"XXXXXXXXXXXXXXXXXXXXXXXXXXXXXXXX",
"XXXXXXXXXXXXXXXXXXXXXXXXXXXXXXXX"
};
