/* XPM */
static char *_2e630fb8a1c4b18b36bfa3c3ca44d04VlW6frCEkPlbXB6y[] = {
/* columns rows colors chars-per-pixel */
"32 32 9 1 ",
"  c #513C0C",
". c gray30",
"X c red",
"o c #9FE114",
"O c #E5FF00",
"+ c #2500FF",
"@ c #FF00E1",
"# c #F174FF",
"$ c #00E9FF",
/* pixels */
"..oX@@+XX@O@@$X++O+O@@  o$ o@@@ ",
"X.+@.$XX++O+X@X@O@O++O@oo ++@++ ",
".@@.$. XX$O+$$@++++X+O@++$ +@++X",
"@@+$X XoX+@+XX@o$$X$$O$  O@+ @@O",
".$+Xo oX +@+X$X@X@@   @$+OoX+++O",
"@$X   X@ ++++$X++ oo+..OO+XOOXXO",
".+o XO@+$@X@XX@$$ + +o.$O+XooXX@",
"++oo@OOOO@oX@@+.$++ oX+O+X$XoX+@",
"@@++O@$$X@oX+X$...+ oOOOOX$@X$+O",
"@.+OO@    o@oo$.+X.+.OO$$$o@@O+O",
" ++X$$@  oX@XXo$X+$+$.$X@@ooXO$@",
" +@@XoX$O$$@XX.$X++...XX@@oX$O+@",
"+  @@oX$O$X$...+@@+o@..@XXo$$OO@",
"+  $OoX$@@oX++.XX@@X@@$@@o..OO+O",
"OO+OOXX@@..$..+@o.oX$X$+@...X@++",
"@@oOO$@@O$..$$X@o..XOo$+X@@.X@+X",
"@@OOXO@OO$.$$$@@.++OOOO+X@@Xo@@X",
"O@o$OOO$OX @@.@@@..+O$++@OOXX+@X",
"+ o @@O$OX @@+.X.o$OO$X++OXX+++X",
" $$ @ $ O    ++$.o.X$O$$XO@@   o",
"  +X @$OoO+.X#+$X@. +OOOOOXOX o ",
"+++   $ +++$X###@@o +++$+OOOXX @",
"+ ++XXOO+O @X#@@O@ooo oXX+++Xo @",
" $  @O$++X @@##oo@Oo o  +$$.++@ ",
"o @$@O$ O Xoo++++O@@o X++...@@ $",
" @@OOOo o OO+###+@@OoX++$$$@@$+$",
" $OXX@X@ooo@@$@@XooXOO+.@X@@X$  ",
"@$@+OO@@  oO$ $@XXo@++..@@@XX$@ ",
"@+++@ X@@XOO+  @$X@X+$$..$$+X$@@",
"$+o+  X@ $OX$ @+$@O$Xo$.$XX+++@@",
"@$+ $@@@@OO@$+++o@OOooX+X+X@..$ ",
"OOO++ @$$$$@X@+X@X+++++++X@o@@$ "
};
