/* XPM */
static char *e068851b41d244c6801465c2fbc34339L1icAKIEtdY58dwo[] = {
/* columns rows colors chars-per-pixel */
"32 32 3 1 ",
"  c black",
". c #E5FF00",
"X c #40EEFF",
/* pixels */
"XXXXXXXXXXXXXXXXXXXXXXXXXXXXXXXX",
"XXXXXXXXXXXXXX XXX XXXX XXXXXXXX",
"XXXXXXXXXXXXXXX XX XX  XXXXXXXXX",
"XXXXXXXXXXXXXXXX X X XXXXXXXXXXX",
"XXXXXXXXXXXXXX        XXXXXXXXXX",
"XXXXXXXXXXXX  ........  XXXXXXXX",
"XXXXXXXXXXX ............ XXXXXXX",
"XXXXXXXXXX .............. XXXXXX",
"XXXXXXXXX ................ XXXXX",
"XXXXXXXX .................. XXXX",
"XXXXXXXX .... ......... ... XXXX",
"XXXXXXX .... . ....... . ... XXX",
"XXXXXXX ... ... ..... ... .. XXX",
"XXXXXXX .................... XXX",
"XXXXXXX ......... .......... XXX",
"XXXXXXX ........ ........... XXX",
"XXXXXXX .......   .......... XXX",
"XXXXXXX .................... XXX",
"XXXXXXX .................... XXX",
"XXXXXXXX ...  ........  ... XXXX",
"XXXXXXXX ..... ...... ..... XXXX",
"XXXXXXXXX .....      ..... XXXXX",
"XXXXXXXXXX .............. XXXXXX",
"XXXXXXXXXXX ............ XXXXXXX",
"XXXXXXXXXXXX  ........  XXXXXXXX",
"XXXXXXXXXXXXXX        XXXXXXXXXX",
"XXXXXXXXXXXXXXXXXXXXXXXXXXXXXXXX",
"XXXXXXXXXXXXXXXXXXXXXXXXXXXXXXXX",
"XXXXXXXXXXXXXXXXXXXXXXXXXXXXXXXX",
"XXXXXXXXXXXXXXXXXXXXXXXXXXXXXXXX",
"XXXXXXXXXXXXXXXXXXXXXXXXXXXXXXXX",
"XXXXXXXXXXXXXXXXXXXXXXXXXXXXXXXX"
};
